<?xml version="1.0" encoding="utf-8"?>
<!-- Generator: Adobe Illustrator 28.3.0, SVG Export Plug-In . SVG Version: 6.00 Build 0)  -->
<svg version="1.1" id="Layer_1" xmlns="http://www.w3.org/2000/svg" xmlns:xlink="http://www.w3.org/1999/xlink" x="0px" y="0px"
	 viewBox="0 0 512 512" style="enable-background:new 0 0 512 512;" xml:space="preserve">
<style type="text/css">
	.st0{fill:#FFFFFF;stroke:#000000;stroke-miterlimit:10;}
</style>
<path d="M428.3,3c11.6-6.4,26.2-2.3,32.6,9.3l4.8,8.7c19.3,34.7,19.8,75.7,3.4,110c26.7,28.6,42.9,66.9,42.9,109
	c0,18.5-3.1,36.3-8.9,52.8c-6.1,17.3-28.5,16.3-36.8-0.1l-11.7-23.4c-4.1-8.1-12.4-13.3-21.5-13.3H360c-13.3,0-24-10.7-24-24v-80
	c0-13.3-10.7-24-24-24h-17.1c-21.3,0-30-23.9-10.8-32.9C304.7,85.4,327.7,80,352,80c28.3,0,54.8,7.3,77.8,20.2
	c5.5-18.2,3.7-38.4-6-55.8l-4.8-8.7C412.6,24.1,416.7,9.5,428.3,3L428.3,3z M171.2,345.5L264,160h40v80c0,26.5,21.5,48,48,48h76.2
	l23.9,47.8C372.3,443.9,244.3,512,103.2,512H44.4C19.9,512,0,492.1,0,467.6c0-20.8,14.5-38.8,34.8-43.3l49.8-11.1
	C122.2,404.8,154.1,380,171.2,345.5L171.2,345.5z"/>
<path class="st0" d="M264.1,199.5l-74.7,158.2c4.1-7.4-6.4,18.3-61.6,62.2c16.3-3.8-89.3,20.6-98.4,23.1c0,0-28.4,36.8,7.7,51.6
	c22.5,5.9,22.5,5.9,22.5,5.9c-0.1-1.8,56.6-4.3,118.3-15.5c25.6-4.6,52-9,75.6-18.2c7.1-2.8,13.6-6.8,19.9-10.7
	c7.9-6.3,9.6-3,9.3-5.4c0-0.1,0-0.2,0.1-0.3c4-5.2,91-53.5,140.6-114.4c4.1-7.3,4.1-7.3,4.1-7.3l-9.9-20.7l-64-2.6
	c0,0-59.9,0.8-61-70.3c-0.6-38.5-0.6-38.5-0.6-38.5l-0.6-17.8h-17.9L264.1,199.5z"/>
<path d="M419.4,311.5"/>
<path class="st0" d="M582.9,361.9"/>
<path class="st0" d="M370.8,429.4"/>
<path class="st0" d="M282.7,450.7"/>
<path class="st0" d="M280.8,420.8"/>
<path class="st0" d="M143.7,371.7"/>
</svg>
